<svg width="192" height="192" fill="none" xmlns="http://www.w3.org/2000/svg"><g clip-path="url(#a)"><path d="M0 0h192v192H0V0Z" fill="url(#b)"/><path d="M81.1 47.8c1.5.2 2.9.4 4.3.3.7-.2 1.3.3 2 .4l-.1-.2c.6.3 1.4.4 2 .5l-.3-.4c.8.3 1.6.7 2.5.7a6 6 0 0 0 1.8.4l2.5.7 1.6.3v.2h.2v-.4l.2.2-.2.2c.7 0 1.4.4 2 .5.4 0 .7.1 1 .3h-.4c.3.2.5.4.9.2l.8.2-.4.2c.3 0 .5.3.7.2l-.3-.3h.5l-.4-.3 1.6.5-1.2-.6h.5c1 .4 1.8 1 2.7 1.1.5.1.8.5 1.2.6v-.2c1.2.3 2.3.8 3.4 1.3l1.9 1.1h.2c.6.2.8 1 1.4 1.2l-.3.1h.4v.4-.3c.5.6 1.3 1 1.7 1.6.7 1.3 1.8 2.6 1.8 4.2.2 1 0 2 .1 3 0 1-.3 2-.6 2.8l-.2.2-.6.6h.7c-.3.2-.7.3-.9.7 0 1.2.4 2.4.4 3.6v2c0 1.8.5 3.6.5 5.5 0 .3-.1.7.2 1l-.2.1h.3l-.2 1h.2v.2l-.3-.2.2.3c-.2.2-.3.4-.6.5h.2l-.3.5c-.6.5-.8 1.3-1.1 2-.3.9 0 1.8.4 2.5l1.8 2.8c.6 1.1 1.2 2.3 2 3.3.4.6 1 .9 1.5 1.4.5.6 1 1.4 1 2.3 0 .8-.4 1.6-1 2.1-.9.7-2 1-3 1.3-.4.2-.9.4-.8.9 0 .8.3 1.6.8 2.3.3.4.5.9.3 1.4-.4 1-1.2 2-2.3 2 .5.8 1 1.6 1 2.5 0 .5-.2 1-.7 1.2-1.2.3-2.2 1.2-2.4 2.4-.1 1.2-.2 2.3-.5 3.5a6 6 0 0 1-3.8 4c-1.1.4-2.3.3-3.5.2l-5-.6h-2.4c-.6 0-1.3 0-1.9.2-.6.2-1 .8-1.2 1.4-.3 1.3-.3 2.7-.7 4l-.5 1.5.3-.1 1 .3c.4 0 .6-.5.9-.8.5 0 1 .2 1.3.6.2.3.8.2 1 .5.5.5.6 1.2.9 1.7.2.3.4.4.7.5 0 .6-.1 1.3.2 1.9.3.5.2 1 .2 1.6-.4 0-.9-.4-1.3-.1-.3.1-.2.5-.2.7l-.2-.2v.4l-.5-.2v.5l.5-.1.2-.3c.4.1 1 .1 1.2.5l-1.3 1-.5-.2-.2.4-.6.5c-.2.3 0 .7.3 1 1.4.3 3 .1 4.4.3h6.3c.2-.2.2-.5.3-.7.2-.2.5-.2.7-.3l-.3-.5c-.2.2-.3.4-.6.4-.2-.3-.2-.7-.5-.9.2-.3.5-.6.9-.7 0-.4.5-.7 1-.8l-.8-1c-.4.3-.8.6-1 1v.5l-.6-.1c0-.4.5-.8.3-1.3s-.2-1.3.4-1.5c.6-.3 1.1-.6 1.5-1.1l1 .2v-.4c.4-.3.5-.9 1-1.2.2 0 .6.4.9.1.3-.3.6-.7 1-.9.3-.1.3-.6.4-.9l.2-.1c.5-.4 1 .2 1.4.4l-.5.5.3.4.4-.8c.4 0 1-.1 1.3.1.5.2 1 .7 1.5.5.4-.2 1-.3 1.4 0 .7.7.6 1.8 1 2.6l-1.2 1c0 .2 0 .4.2.7.1.2.5.1.8.1 0 .3-.2.8.2 1 .5.3 1-.2 1.2-.6.4-.5 0-1.1 0-1.6l.2-1h.5v-.7c.3 0 .6 0 .8.2v-1.5l.8-.4.5.2c.3-.3.6-.6 1-.7l.5.9c.4.5.3 1.2.5 1.8l.5.4c.2-.1.6-.3.8 0 .3.2 0 .6 0 1l.8-.2c.2.2.3.5.6.5.5 0 1.2-.2 1.2-.8 0-.5.3-.9.4-1.3 0-.4-.3-.6-.5-.9.5-.2 1 0 1.5 0l.2-.9c.4 0 .8 0 1.2-.2.4.4 1 .2 1.4.2l1.2-.6.3.3.6-.1.4-.3.4.1c0 .3.2.5.3.8l1 .7h-.3l.1.5c.3-.2.7-.5 1-.3.4 0 .4.5.4.8.4.2.8.6 1.1 1 .5-.2 1-.6 1.3-1-.1-.3-.5-.6-.2-1 .3-.3.7-.4 1.1-.3.3 0 .6.3.8.3.6-.5 1.2-.7 2-.7l.6.5.5-.4c.4-.2.8 0 1.2-.1l.6-.6 1 .2c.5-.1 1-.4 1.6-.3.3 0 .6.3 1 .3l1.4.1 2.3.3 1.3.1c.6.2.8 1 1.5 1l3.9.6c.3.2.7.5.8.9.4.2.7.5.9.9l.3-.3c.2-1.3 0-2.6 0-3.9v-5.2l.2-.2c.4 0 .3.4.3.7v4c.1 1.7 0 3.5.2 5.2 0 .2.2.3.3.4l1.2.1c.2.1.4.3.7.3.5 0 .7-.5 1-.8.2 0 .3.2.4.3h1.2c.3.1.6.3.7.6.2.3.2.8.6 1 .5.2 1.1.3 1.7.2.3-.3.5-.8 1-1 .4-.3.7-.8 1.2-.7.7.4 1.4 1 1.7 1.8.3.7.8 1.4.7 2.2l.4.3c.4-.2.7-.5 1.2-.5.2-.1.4-.4.5-.7h.4l.5-.5-.1-.3.2-.4-.2-1c.3-.4.7-.5 1.1-.4l.4-.6v-.4c.3-.2.6-.2 1-.2.2-.2.4-.5.8-.6l1.2.2c.4 0 .5.4.7.6.6.2 1.2.3 1.7.7.2.2.2.6.2.9l-.2.1.2.2h.6c.2 0 .4.2.5.4l.4.2c.3-.2.6-.6.6-1s0-.7.2-1c.2-.4-.2-.8 0-1.2.3-.2.5 0 .7.2v.7h-.4c-.1.2-.3.4-.3.7.2.3.1.6 0 .9l.7.4V192H0v-74.3a9 9 0 0 0 1-.2c.1.5.6.5 1 .6l.1.3.5-.3c.6.3 1.4.4 2.1.3l.3-.5-.2-.7.3-.6a2 2 0 0 0-.8-1l.6-.5c0-.8.3-1.5.6-2 .5-.4 1-.2 1.4.2 0 .4-.3.8-.4 1.1v1.5l.2.7c0 .4-.2.8-.1 1.3.2.3.5.6.6 1l.4.4c.5-.1 1-.5 1.4-.7l1.2-.5-.9-.3.1-1c.4-.3.6-.8 1-1.3 0-.5.2-1 .4-1.6l.5.5v.4c0 .4 0 .9.3 1.2.2.3.5.5.5.9-.2.4-.6.7-.9 1l.4.4.6.2c-.2.2-.5.5-.3.9v-.3h.7c.6.5 1.3.6 2 .7l.4-.5.1-.3v.4c.7-.2 1.3.1 1.8.5.3.2.6-.2.8-.5.2-.7.8-1.2 1.1-1.8l-.1-1.1.5-.2.3-.3v-.4c.5-.3 1.2-.6 1.8-.4l.6.8.4.3c0 .5.2 1 .4 1.4 0 .2-.2.3-.3.4v.7c-.3 0-.7 0-1 .2l-.9-.2v1.1l.5.1c.3-.2.5-.6 1-.4l-1 .7-.2.6 1-.3-.1-.5 1 .3c0 .2.1.6.5.6.6 0 1.2 0 1.7.2l1.3-1c.3-.1 0-.4-.1-.6 0-.8.7-1.2 1.3-1.5l.4.5c.3 0 .6-.2 1-.4l.3 1.2c.2.3.6.3.6.7l.4.5c.2 0 .4 0 .6-.2 0-.4.2-.9.5-1.2 0-.3 0-.7.3-1h.7c.3-.3.8-.4 1.2-.3-.1.2-.4.4-.4.7 0 .5.3 1 .6 1.4-.6 0-1.3.2-1.5.8l.4.3c.4 0 .7-.3.9-.6h.4l.3-2.7a21.2 21.2 0 0 1 0-.1c.3-.6 0-1.3.2-2 .2.6 0 1.2-.1 1.8 0 1.2-.3 2.3-.2 3.5.1.6-.2 1.2.2 1.7.4 0 .8-.3 1.3-.2h.7v.3l.2-.3.8.4-.2.3c.2-.2.5-.3.7-.3l.4-.2h-.5l.6-.4-.2-.4c.3-.2.6-.4.9-.2l-.2-.5.3.2c.3-.4.8-.6.8-1.2l-.4-.5.9.5c0-.4 0-.7-.5-.8v.4-.5h-.4l.1-.1h-.1l.1.4-.4-.5h-.2v.5l-1-1 .8.6c.2-.5-.4-.7-.8-.8l-.4-.5H37l.2-.1c-.4-.2-.5-.6-.6-1l-.1.2-.8-.8c-.4-.3-1-.5-1.3-1l-.2.5v-.7c-.2-.3-.5-.7-.6-1.2h-.3l-.5-.8c-.5-.7-.6-1.5-1-2.2l-.2.9c0-.6 0-1.2-.2-1.7-.2-.7-.5-1.4-1.2-1.7-.1-.4-.4-.7-.6-1-.4-.4-.2-1-.4-1.5v-.8l-.1.3-.4-.1-.6.9c.3-1 1.1-1.8 1-2.8v-.2l.2-.9-.4.3c.2-.3.5-.6.6-1 0-.4.2-.9.4-1.3v-.4c-.5 0-1 .1-1.6 0l1.4-.2 1-.9-.3.6v.1c.2-.5.5-.8 1-1l.7-.8.8-.9h.3l.3-.4v.3c.4-.2 1.2-.2 1.1-1 .1.2.4.2.3.4l-.3.3 2-1s0-.2-.2-.3l.8-.1V95.5l1.5-.2-1-.1.6-.2-1-.1 1.2-.2 1.3.1-.3.1h-1.4c.5.3 1 .1 1.6.2l.2-.3.7.2v-.2c1 0 2.1.1 3.2 0v-1c.3-.5 1-.4 1.2-.8a2 2 0 0 1 1.2-.7c.5-.2 1 0 1.6 0l.5-1.8h.3l-.3-.2c.6-2.7 1-5.5 1.7-8.2l.7-3.8.7-4c0-1 .4-2 .8-3l.2-.9c.3-.3.4-.8.7-1.2h-.3l.4-1.3.1.6c.3-.5.5-1 .5-1.5h.2c0-.5.3-1 .6-1.4v-.1l.2-.3c-.3-.6.7-1 .7-1.6l1-1.7c.5-.8 1.3-1.5 1.5-2.4a4 4 0 0 0 1-1.3h-.3l.5-.7c.4.3 0 .7 0 1l1.1-1.5-.6.6h-.2l.2-.4V57c.1-.3.4-.5.6-.7v-.2c.7-.4 1.3-1 2-1.7L64 53v.5l.5-.7v.3l.4-.2-.1-.2c.4-.2.7-.7 1.2-.6 0-.2.2-.2.4-.3l1-.7h.4l.3-.5v.4c.3 0 .5-.6.9-.4.8-.3 1.5-.8 2.3-1l.2.1v-.2c.5 0 1-.1 1.4-.3-.3-.3-.7 0-1 0V49l1.2-.2.2.3.6-.1-.5-.2v-.3h.2l.1.2a5 5 0 0 1 1.6 0c.2-.1 0-.3 0-.3l.4-.2v.4l.9-.2v-.2l.7.1-.2-.3h1.6v.1c.9.2 1.8 0 2.7 0l-.4-.3Zm21.3 4.3Zm-36.7 0c.4-.1 0 .5 0 0Zm-2 1.6c.1 0 .2 0 .2-.2-.2 0-.3 0-.3.2ZM62.2 55c-.7.6-1.5 1.3-1.9 2.2l1-1c-.2-.3.4-.2.4-.5.2-.4.6-.6.9-.9l-.4.2Zm-9.1 13.7Zm-.9 3c.5 0-.2.4 0 0ZM33.1 97Zm-4 7.8v.3-.3Zm5.8 10.7c.1 0 .1 0 0 0Zm-14.3 1.3.3.3-.2.2c.2.5.4 1.2 1 1.1v.2c0-.3.3-.7 0-1-.1-.1-.4-.6 0-.7l-.6-.4-.5.3Zm32.8 2.4.1.2c0 .4.4.8.6 1.2a7 7 0 0 0 1.5 2c.4-.1.8-.1 1-.4l-.8-.7-1-1.1-.9-1-.1-.4-.4.2Zm-13.1.4.2.4.2.2v-.3a382.3 382.3 0 0 0-.4-.3Zm10.2.2v.2l-1.2.1v.2-.2c-.5.1-1 .2-1.6.1v.2H47l.3.2c-.5 0-1-.1-1.6 0l.2-.2h-.9v.2h.6l-.3.2.3.3c-.3-.2-.7-.1-1 0 0-.2.2-.3.3-.4l-.6-.1.1-.3h-.5c.4.1.5.5.4.8l.8.9-.2.1-1-1.2h-.5c-.3-.2-.7-.2-1-.2l.2.3-1-.1.4 1.4c.3.7.2 1.5.7 2.1H44.3c.1.4.5.4.7.5.2 0 .4-.2.6-.4h.6l-.1-.4c.3 0 .3-.4.3-.7l.7.1.1-.1.5.5.8.6-.9-.6v.5-.3l-.2.1c0 .5-.1 1.1.4 1.4 0 .3 0 .6.3.7l.5.2.6-.2c-.2-.4 0-.8.3-1.2h.3-.2v-.2c.3 0 .4-.4.6-.6h.5c0 .4-.3.8 0 1l.3-.3c.3.4.7.7 1.2.8.2 0 .3-.2.5-.3l.5.2.2.4v-.4c.2-.9.7-1.7 1.2-2.4l-.1-.3-.3-.1-1-1.1c-.2-.4-.6-.6-.7-1-.1-.4-.7-.5-.7-1h-1.3Zm-7.6.7.6.3v-.3a.7.7 0 0 0-.6 0Zm-9.3.3-1.2 1c0 .4.5.6.9.8v-.3l.3.6c.4-.6 0-1.4 0-2.1Zm-2.7.5c0 .3.6.4.6 0h-.6Zm14.3 3.6c.4 0-.2.4 0 0Zm49.7 5.5c.3.4.7.5 1.1.6.2-.4.7-.8.5-1.3-.6-.3-1.8-.1-1.6.7Zm42.4.5c.2-.1.4-.3.4-.5l-.3-.2c-.2.2-.3.5-.1.7Zm-3.7 0 .1.4.5-.4-.4-.1-.2.1Zm-40.5 0c-.2.5 0 .9.3 1.2.3 0 .5-.2.7-.5.3.2.6.1.8.4l.2-.4-.3-.2-.2-.3H94l.3.3h-.4l.3-.1c-.2-.4-.7-.4-1-.4Zm22.2.4c-.2.3-.2.6 0 .8.3-.2.3-.6 0-.8Zm20.8 0c0 .3 0 .6.4.5l.3.1.1-.3-.8-.3Zm1.7.2c.3.4.8.6 1 1 0 .4.2.6.4.8.3-.3.4-.7.5-1-.2-.3-.4-.5-.7-.6 0-.3-.2-.4-.5-.5l-.7.3Zm6.7.7c.2.3.6 0 .8.2l.2.8c.4-.4.4-1 .2-1.4-.1-.4-.5-.5-.8-.6-.2.3-.7.6-.4 1Zm-45.4-.7c-.3 0-.1.4.1.3.4 0 .2-.5-.1-.3Zm-3.5.5v.4l.5.2c.2-.2.5-.3.3-.6 0-.2-.2-.4-.3-.5l-.5.5Zm63 .3.3-.4c-.3 0-.4 0-.4.4Zm-60.1 0c.1.2.4.2.7.2l-.1.7.2.6-.7.1-1.3.8-.5-.2c.1.7.8.6 1.2.8l.1-.2c.6-.2 1.1-.6 1.8-.6 0-.3.2-.5.3-.8-.3-.5 0-1.1-.5-1.5l-.6.3-.2-.3h-.4Zm39 .3.1.6.3-.1c.1-.3-.2-.4-.4-.5Zm-45.8.7v.4l-.2.1-.3-.6c-.5.6-.7 1.4-1 2.1-.3.4.2.7.1 1l.4.5v.4c.3.2.7.5.6.9a3 3 0 0 0 1.2-.4c.2-.2 0-.4 0-.6 0-.5.1-1 .3-1.4l-.2-.4.7-.4-.5-.5c0-.3 0-.6-.2-.8 0-.2.2-.3 0-.4-.1-.3-.4-.3-.7-.3l-.2.4Zm1.8.2.1.8 1.3.2.1-.2h.4c-.4-.2-.7-.6-1-1l-.9.2Zm55.8.2c-.2.3-.1.7.2 1h.4c0-.4 0-.8-.2-1.1h-.4Zm2 .2c-.3.1-.2.4-.2.6l.4.1.2-.3c0-.1-.2-.5-.4-.4Zm-41.7.9c.3 0 .7 0 1 .3 0-.2 0-.3.2-.5l-.3-.3c-.4 0-.7.3-1 .5ZM96 136.9l.4.7.2-.4c.5-.5.3-1.3.4-1.9-.6.3-1.1.9-1 1.6Zm31.6-1c.1.3.5.2.7.2v.5h.2v.2c.2-.3.1-.7.2-1.1 0-.3-.2-.4-.4-.5-.3.1-.6.3-.7.7Zm8.8-.1c.2-.2.2-.3 0-.4-.2 0-.2.2 0 .4Zm-42.9-.3c-.1.3.2.5.4.7v-.5l-.4-.2Zm3.8.6.5.4.3-.4a6 6 0 0 0-.8 0Zm42.2.3c.3.6 0 1.4.6 1.9.1-.2.4-.4.3-.6v-1.4c-.3-.2-.7-.2-.9.1Zm-45.8.8c-.3 0 0 .5.2.3.2-.1 0-.4-.2-.3Zm28.4.3v.3l.5.3.1-.3-.2-.5-.4.2Zm8.2.5c.2 0 .3.2.5.3.3 0 .4-.2.6-.5-.2-.1-.3-.4-.6-.3-.2 0-.6.1-.5.5Z" fill="#000"/></g><defs><radialGradient id="b" cx="0" cy="0" r="1" gradientUnits="userSpaceOnUse" gradientTransform="matrix(0 -150.656 277.372 0 96 150.7)"><stop stop-color="#FF5C16"/><stop offset=".2" stop-color="#F18242"/><stop offset=".6" stop-color="#784F53"/><stop offset="1" stop-color="#321F27"/></radialGradient><clipPath id="a"><path fill="#fff" d="M0 0h192v192H0z"/></clipPath></defs></svg>